<?xml version="1.0" standalone="no"?>
<!DOCTYPE svg PUBLIC "-//W3C//DTD SVG 20010904//EN"
 "http://www.w3.org/TR/2001/REC-SVG-20010904/DTD/svg10.dtd">
<svg version="1.0" xmlns="http://www.w3.org/2000/svg"
 width="1000.000000pt" height="1000.000000pt" viewBox="0 0 1000.000000 1000.000000"
 preserveAspectRatio="xMidYMid meet">
<metadata>
Created by potrace 1.14, written by Peter Selinger 2001-2017
</metadata>
<g transform="translate(0.000000,1000.000000) scale(0.100000,-0.100000)"
fill="#000000" stroke="none">
<path d="M4679 9996 c-2 -2 -47 -6 -100 -10 -53 -4 -107 -9 -120 -11 -13 -2
-46 -6 -74 -9 -126 -15 -185 -23 -219 -31 -12 -3 -32 -7 -46 -9 -424 -69 -943
-241 -1355 -449 -377 -190 -710 -413 -1035 -691 -112 -96 -411 -392 -496 -491
-51 -59 -160 -193 -220 -270 -272 -350 -542 -842 -711 -1295 -59 -160 -155
-483 -182 -615 -5 -22 -16 -74 -24 -115 -23 -108 -45 -236 -52 -300 -4 -30
-11 -85 -16 -122 -31 -226 -34 -968 -5 -1125 2 -10 7 -43 10 -74 4 -31 8 -65
10 -75 2 -11 7 -40 10 -65 42 -316 160 -746 298 -1094 203 -510 510 -1010 883
-1441 74 -86 389 -400 474 -474 417 -360 923 -672 1391 -859 58 -23 114 -46
125 -51 113 -52 620 -199 779 -225 17 -3 67 -12 111 -21 95 -17 151 -26 260
-39 28 -3 59 -8 70 -10 135 -27 937 -28 1095 -1 14 3 68 10 120 16 52 6 118
15 145 20 68 13 104 19 145 26 58 10 289 64 385 90 469 130 932 337 1357 606
94 60 332 227 363 255 11 10 56 46 99 81 131 104 203 169 382 347 208 208 351
375 542 635 53 72 196 292 234 360 14 25 37 65 52 90 56 94 226 451 284 595
180 451 304 977 339 1435 10 133 10 704 1 830 -11 136 -29 277 -54 425 -9 50
-18 104 -21 120 -22 136 -112 472 -181 675 -116 338 -327 778 -500 1038 -23
35 -42 65 -42 67 0 3 -14 24 -30 47 -17 24 -49 70 -72 103 -23 33 -80 110
-127 170 -76 99 -117 148 -231 280 -19 22 -109 114 -200 205 -613 614 -1341
1040 -2180 1279 -209 59 -490 118 -655 137 -33 3 -67 8 -75 9 -8 2 -46 6 -85
10 -38 4 -81 10 -95 12 -32 5 -755 14 -761 9z"/>
</g>
</svg>
