<?xml version="1.0" standalone="no"?>
<!DOCTYPE svg PUBLIC "-//W3C//DTD SVG 20010904//EN"
 "http://www.w3.org/TR/2001/REC-SVG-20010904/DTD/svg10.dtd">
<svg version="1.0" xmlns="http://www.w3.org/2000/svg"
 width="1000.000000pt" height="1000.000000pt" viewBox="0 0 1000.000000 1000.000000"
 preserveAspectRatio="xMidYMid meet">
<metadata>
Created by potrace 1.14, written by Peter Selinger 2001-2017
</metadata>
<g transform="translate(0.000000,1000.000000) scale(0.100000,-0.100000)"
fill="#000000" stroke="none">
<path d="M4595 9993 c-226 -17 -555 -72 -804 -134 -1896 -468 -3363 -2027
-3716 -3949 -64 -350 -70 -429 -70 -910 0 -481 6 -560 70 -910 373 -2031 1984
-3642 4015 -4015 350 -64 429 -70 910 -70 481 0 560 6 910 70 2031 373 3642
1984 4015 4015 64 350 70 429 70 910 0 481 -6 560 -70 910 -373 2031 -1984
3642 -4015 4014 -330 61 -426 69 -860 71 -223 1 -427 1 -455 -2z m-1675 -3778
c295 -65 520 -227 648 -465 40 -74 92 -230 92 -276 l0 -24 -240 0 c-223 0
-240 1 -240 18 0 33 -68 161 -110 206 -91 99 -225 154 -396 163 -268 15 -483
-114 -599 -359 -125 -265 -126 -726 -2 -975 65 -131 195 -240 356 -297 78 -28
97 -30 206 -30 186 0 300 42 414 148 65 61 120 142 149 216 22 58 42 127 42
148 0 9 -61 12 -270 12 l-270 0 0 195 0 195 485 0 485 0 0 -635 0 -635 -158 0
-159 0 -22 133 c-12 72 -24 138 -27 146 -3 8 -44 -25 -113 -92 -93 -89 -124
-112 -203 -151 -112 -55 -176 -72 -326 -88 -443 -44 -838 171 -1042 568 -155
302 -181 772 -64 1139 56 175 158 337 294 469 161 155 331 240 564 281 107 19
401 13 506 -10z m4815 -11 c229 -37 403 -128 547 -283 125 -135 206 -304 231
-484 l6 -37 -246 2 -246 3 -12 40 c-69 236 -246 364 -503 365 -297 1 -497
-195 -569 -556 -26 -135 -24 -435 5 -569 30 -141 92 -262 176 -347 110 -109
229 -158 391 -158 243 0 405 121 491 370 l23 65 241 3 c135 1 240 -2 240 -7 0
-35 -56 -215 -88 -285 -54 -113 -103 -186 -187 -275 -181 -191 -386 -277 -680
-288 -336 -12 -594 78 -795 277 -122 121 -200 244 -254 404 -110 319 -111 756
-2 1080 92 273 277 486 527 605 189 91 441 118 704 75z m-2396 -34 c119 -16
200 -39 296 -85 109 -53 186 -115 264 -214 117 -148 185 -311 222 -540 18
-109 20 -154 16 -336 -8 -286 -47 -466 -143 -657 -141 -281 -326 -428 -619
-495 -58 -13 -170 -16 -647 -20 l-578 -5 0 1181 0 1181 558 0 c306 0 590 -5
631 -10z"/>
<path d="M4628 5774 c-5 -4 -8 -353 -8 -776 l0 -768 273 0 c210 0 286 3 330
15 187 49 314 191 381 425 92 324 39 798 -107 966 -19 22 -62 55 -95 72 -110
59 -148 64 -472 69 -162 3 -298 2 -302 -3z"/>
</g>
</svg>
